<svg version="1.2" xmlns="http://www.w3.org/2000/svg" viewBox="0 0 279.4029850746268 279.4029850746268" width="510" height="510">
	<title>devotta-logo</title>
	<style>
		.s0 { fill: #ed702d } 
	</style>
	<g id="Layer 1">
		<path class="s0" d="m157.2 139.7c-10.7 0-21.3 0-32.2 0q0-1 0-1.9 0-50.7 0-101.3c0-0.6 0-1.3 0-2-0.1-0.2-0.1-0.2 0-0.1 10.8 0 21.4 0 32.2 0 0 0.7 0 1.1 0 1.5q0 51.5 0 102.9 0 0.5 0 0.9 0 0 0 0z"/>
		<path class="s0" d="m125.2 244.9c-0.1-0.5-0.2-1.1-0.2-1.6q0-33.3 0-66.7c0-0.5 0-1.1 0-1.9 10.8 0 21.3 0 32 0 0.2-0.1 0.2-0.1 0.2 0.1 0 23.4 0 46.7 0 70.1-10.8 0-21.4 0-32 0q0 0 0 0z"/>
		<path class="s0" d="m125 244.9c0.2 0 0.2 0 0.2 0.1-0.1 0.9-0.2 1.7-0.2 2.4q0 15.7 0 31.4c0 0 0 0-0.1 0-10.6 0-21.1 0-31.8 0-0.2-11.2-0.2-22.5-0.2-33.9 10.8 0 21.4 0 32.1 0z"/>
		<path class="s0" d="m92.9 0.8c10.6-0.2 21.2-0.2 31.9-0.2 0.1 0 0.2 0.1 0.2 0.4 0.1 10.6 0 21.1 0 31.6 0 0.6 0 1.1-0.1 1.7q0 0 0 0c-0.3 0.1-0.6 0.1-1 0.1q-15 0.1-30 0c-0.2 0-0.5 0-1 0 0-11.2 0-22.3 0-33.6z"/>
		<path class="s0" d="m157.2 174.6c0-11.5 0-23.1 0-34.8 0-0.1 0-0.1 0.1-0.1 10.3 0 20.5 0 30.6 0 0 0 0 0 0 0.2 0 4.9 0 9.7 0 14.4 0 6.8 0 13.6-0.2 20.5-9.7 0-19.2 0-28.8-0.1-0.6 0-1.2 0-1.7-0.1q0 0 0 0z"/>
	</g>
</svg>